{
  "accessors": [
    {
      "bufferView": 2,
      "componentType": 5126,
      "count": 5439,
      "max": [
        0.9396910071372986,
        0.24023300409317017,
        2.1002390384674072
      ],
      "min": [
        -0.9396910071372986,
        -0.253042995929718,
        -0.0003910000086762011
      ],
      "type": "VEC3"
    },
    {
      "bufferView": 2,
      "byteOffset": 65268,
      "componentType": 5126,
      "count": 5439,
      "max": [
        0.999870777130127,
        0.9999644160270691,
        0.9998558759689331
      ],
      "min": [
        -0.999870777130127,
        -1.0,
        -1.0
      ],
      "type": "VEC3"
    },
    {
      "bufferView": 1,
      "componentType": 5126,
      "count": 5439,
      "max": [
        0.9902340173721313,
        0.9919970035552979
      ],
      "min": [
        0.006732999812811613,
        0.009277000091969967
      ],
      "type": "VEC2"
    },
    {
      "bufferView": 0,
      "componentType": 5125,
      "count": 17454,
      "type": "SCALAR"
    }
  ],
  "asset": {
    "extras": {
      "author": "Tervoncuz (https://sketchfab.com/Tervon)",
      "license": "CC-BY-4.0 (http://creativecommons.org/licenses/by/4.0/)",
      "source": "https://sketchfab.com/3d-models/mobile-mortal-kombat-x-shirai-ryu-ninja-a-3c98554b4cf74deabefb45a640fae1b1",
      "title": "Mobile - Mortal Kombat X - Shirai Ryu Ninja A"
    },
    "generator": "Sketchfab-16.44.0",
    "version": "2.0"
  },
  "bufferViews": [
    {
      "buffer": 0,
      "byteLength": 69816,
      "name": "floatBufferViews",
      "target": 34963
    },
    {
      "buffer": 0,
      "byteLength": 43512,
      "byteOffset": 69816,
      "byteStride": 8,
      "name": "floatBufferViews",
      "target": 34962
    },
    {
      "buffer": 0,
      "byteLength": 130536,
      "byteOffset": 113328,
      "byteStride": 12,
      "name": "floatBufferViews",
      "target": 34962
    }
  ],
  "buffers": [
    {
      "byteLength": 243864,
      "uri": "scene.bin"
    }
  ],
  "images": [
    {
      "uri": "textures/MKX_iOS_NPC_SRY_NIA_B_baseColor.png"
    }
  ],
  "materials": [
    {
      "doubleSided": true,
      "name": "MKX_iOS_NPC_SRY_NIA_B",
      "pbrMetallicRoughness": {
        "baseColorTexture": {
          "index": 0
        },
        "metallicFactor": 0.0,
        "roughnessFactor": 0.9921745770996335
      }
    }
  ],
  "meshes": [
    {
      "name": "Object_0",
      "primitives": [
        {
          "attributes": {
            "NORMAL": 1,
            "POSITION": 0,
            "TEXCOORD_0": 2
          },
          "indices": 3,
          "material": 0,
          "mode": 4
        }
      ]
    }
  ],
  "nodes": [
    {
      "children": [
        1
      ],
      "matrix": [
        1.0,
        0.0,
        0.0,
        0.0,
        0.0,
        2.220446049250313e-16,
        -1.0,
        0.0,
        0.0,
        1.0,
        2.220446049250313e-16,
        0.0,
        0.0,
        0.0,
        0.0,
        1.0
      ],
      "name": "Sketchfab_model"
    },
    {
      "children": [
        2
      ],
      "name": "MK-X_iOS_NPC_Shirai_Ryu_Ninja_A.obj.cleaner.materialmerger.gles"
    },
    {
      "mesh": 0,
      "name": "Object_2"
    }
  ],
  "samplers": [
    {
      "magFilter": 9729,
      "minFilter": 9987,
      "wrapS": 10497,
      "wrapT": 10497
    }
  ],
  "scene": 0,
  "scenes": [
    {
      "name": "Sketchfab_Scene",
      "nodes": [
        0
      ]
    }
  ],
  "textures": [
    {
      "sampler": 0,
      "source": 0
    }
  ]
}
